<?xml version="1.0" encoding="UTF-8" standalone="no"?>
<!-- Created with Inkscape (http://www.inkscape.org/) -->

<svg
   xmlns:dc="http://purl.org/dc/elements/1.1/"
   xmlns:cc="http://creativecommons.org/ns#"
   xmlns:rdf="http://www.w3.org/1999/02/22-rdf-syntax-ns#"
   xmlns:svg="http://www.w3.org/2000/svg"
   xmlns="http://www.w3.org/2000/svg"
   xmlns:sodipodi="http://sodipodi.sourceforge.net/DTD/sodipodi-0.dtd"
   xmlns:inkscape="http://www.inkscape.org/namespaces/inkscape"
   width="744.09448819"
   height="1052.3622047"
   id="svg3047"
   version="1.1"
   inkscape:version="0.48.2 r9819"
   sodipodi:docname="New document 4">
  <defs
     id="defs3049">
    <clipPath
       clipPathUnits="userSpaceOnUse"
       id="clipPath3001">
      <path
         inkscape:connector-curvature="0"
         d="m 0,803.339 623.339,0 L 623.339,0 0,0 0,803.339 z"
         id="path3003" />
    </clipPath>
  </defs>
  <sodipodi:namedview
     id="base"
     pagecolor="#ffffff"
     bordercolor="#666666"
     borderopacity="1.0"
     inkscape:pageopacity="0.0"
     inkscape:pageshadow="2"
     inkscape:zoom="0.35"
     inkscape:cx="375"
     inkscape:cy="520"
     inkscape:document-units="px"
     inkscape:current-layer="layer1"
     showgrid="false"
     inkscape:window-width="1920"
     inkscape:window-height="1018"
     inkscape:window-x="1912"
     inkscape:window-y="-8"
     inkscape:window-maximized="1" />
  <metadata
     id="metadata3052">
    <rdf:RDF>
      <cc:Work
         rdf:about="">
        <dc:format>image/svg+xml</dc:format>
        <dc:type
           rdf:resource="http://purl.org/dc/dcmitype/StillImage" />
        <dc:title></dc:title>
      </cc:Work>
    </rdf:RDF>
  </metadata>
  <g
     inkscape:label="Layer 1"
     inkscape:groupmode="layer"
     id="layer1">
    <path
       inkscape:connector-curvature="0"
       d="m 63.532438,349.14138 4.17625,0 0,29.24 -4.17625,0 0,-29.24 z"
       style="fill:#776c60;fill-opacity:1;fill-rule:nonzero;stroke:none"
       id="path2995" />
    <g
       transform="matrix(1.25,0,0,-1.25,-189.50006,859.69013)"
       id="g2997">
      <g
         id="g2999"
         clip-path="url(#clipPath3001)">
        <g
           id="g3005"
           transform="translate(230.1776,405.9331)">
          <path
             inkscape:connector-curvature="0"
             d="m 0,0 0,-18.379 10.984,0 c 12.947,0 18.125,3.609 18.125,9.19 C 29.109,-3.609 23.931,0 10.984,0 L 0,0 z m -3.341,-20.885 0,23.391 14.325,0 c 15.202,0 21.55,-4.745 21.55,-11.695 0,-6.951 -6.348,-11.696 -21.55,-11.696 l -14.325,0 z"
             style="fill:#776c60;fill-opacity:1;fill-rule:nonzero;stroke:none"
             id="path3007" />
        </g>
        <g
           id="g3009"
           transform="translate(351.4106,395.9082)">
          <path
             inkscape:connector-curvature="0"
             d="m 0,0 c 4.427,0 7.894,1.27 7.894,5.013 0,3.742 -3.383,5.012 -7.769,5.012 l -19.921,0 L -19.796,0 0,0 z m -23.137,12.531 23.179,0 c 6.265,0 11.276,-1.905 11.276,-7.518 0,-5.548 -5.178,-7.452 -11.36,-7.419 l -2.714,0 15.285,-8.454 -5.262,0 -14.785,8.354 -12.278,0 0,-8.354 -3.341,0 0,23.391 z"
             style="fill:#776c60;fill-opacity:1;fill-rule:nonzero;stroke:none"
             id="path3011" />
        </g>
        <g
           id="g3013"
           transform="translate(391.8741,395.0728)">
          <path
             inkscape:connector-curvature="0"
             d="m 0,0 -1.503,-1.737 20.088,0 L 17.123,0 8.562,11.028 0,0 z m 28.9,-10.025 -3.841,0 -4.678,5.781 -23.68,0 -4.636,-5.781 -3.842,0 18.418,23.392 3.841,0 18.418,-23.392 z"
             style="fill:#776c60;fill-opacity:1;fill-rule:nonzero;stroke:none"
             id="path3015" />
        </g>
        <path
           inkscape:connector-curvature="0"
           d="m 309.919,404.783 -30.977,0 0,3.703 30.977,0 0,-3.703 z"
           style="fill:#f05137;fill-opacity:1;fill-rule:nonzero;stroke:none"
           id="path3017" />
        <path
           inkscape:connector-curvature="0"
           d="m 309.919,384.953 -30.977,0 0,3.703 30.977,0 0,-3.703 z"
           style="fill:#f05137;fill-opacity:1;fill-rule:nonzero;stroke:none"
           id="path3019" />
        <path
           inkscape:connector-curvature="0"
           d="m 299.654,394.892 -20.712,0 0,3.703 20.712,0 0,-3.703 z"
           style="fill:#f05137;fill-opacity:1;fill-rule:nonzero;stroke:none"
           id="path3021" />
      </g>
    </g>
  </g>
</svg>
